<mxfile host="app.diagrams.net" modified="2024-02-12T03:01:24.609Z" agent="Mozilla/5.0 (Windows NT 10.0; Win64; x64) AppleWebKit/537.36 (KHTML, like Gecko) Chrome/121.0.0.0 Safari/537.36" version="23.1.2" etag="MFcfQhsDhl6rr-_SQ5Xe" type="github">
  <diagram name="第 1 页" id="N5QdtMgzJgCkD8Id7-se">
    <mxGraphModel>
      <root>
        <mxCell id="0" />
        <mxCell id="1" parent="0" />
      </root>
    </mxGraphModel>
  </diagram>
</mxfile>
